<svg width="400" height="400" viewBox="0 0 400 400" fill="none" xmlns="http://www.w3.org/2000/svg">
<g clip-path="url(#clip0_177_4)">
<path d="M247.5 217.5L240 213L241.5 253L249.5 257.5L255.5 264L260.5 270.5L264 279L265.5 287.5L267 284L269.5 274V253L268.5 244.5L264.5 237L259.5 230.5L254 223.5L247.5 217.5Z" fill="#973125" stroke="#3B221B"/>
<path d="M219 178H205.5L234.5 205.5L241 205H251.5L257.5 205.5L263 209L268 213.5L273 218.5L271.5 211L269 204.5L265.5 198.5L261 192.5L256.5 188L251.5 184L245.5 181L239 179L233.5 178H227.5H219Z" fill="#973125" stroke="#3B221B"/>
<path d="M137.5 169.5L133.5 176.5L199.5 177L200.5 169.5L204 159L208 151L213 142L219 133L224.5 127L231 121.5H224.5L217 122.5L205.5 126.5L192.5 131.5L175 139.5L164.5 145.5L155.5 151.5L149 157L142 164L137.5 169.5Z" fill="#973125" stroke="#3B221B"/>
<path d="M173 234.5H179L180 229.5L181.5 224.5L183 221C184.19 219.179 185.309 217.543 188 217H193C194.362 217.234 195.128 217.681 196.5 219L199.5 222C201.563 224.574 202.122 225.986 203 228.5C203.632 231.703 204.268 234.961 204 238C203.767 240.422 203.652 241.626 203.5 243.5C203.025 245.783 202.239 247.4 200.5 250.5L196.5 257L193 262.5L188 269.5L181 280L174.5 288.5L167.5 296L161 303.5L154.5 311.5C151.681 315.151 150.448 317.098 148.5 320.5C145.706 324.751 144.776 326.025 143 328.5L138 336.5C134.933 341.524 133.537 343.877 132.5 346C130.595 350.253 129.826 352.163 128.5 355.5L124.5 365L121.5 372.5C120.118 376.018 119.371 377.906 118 381C116.426 384.048 115.615 386.978 115.5 388.5V397.5V404H227.5H377H401V398L396 393L385.5 386L375 380.5L362 373.5L349.5 368L334 364L322 361L310.5 359L300 357.5L289 356.5H281.5H273H265L251.5 357H242H229.5L221 357.5H217L211 357L204.5 353.5L200.5 347.5V341.5L202.5 333.5L207 325.5L211 320L216.5 313L221 306L225.5 300L230.5 293L234.5 287L237.5 280.5L240.5 272.5L244 264.5L246.5 253V245V237.5V229.5L245 221L242 213L238.5 206L234.5 199.5L230.5 194.5L226 190.5L221.5 186.5L216.5 183.5L211.5 180.5L205.5 176.5L200.5 174L194.5 173.5H188H180H170H161.5H155.5H146.5L139.5 174L135 174.5L130.5 175.5C128.838 175.955 127.943 176.329 126.5 177.5C125.057 178.671 124.53 178.948 123.5 180.5C122.47 182.052 122 183 121.5 184.5C120.885 185.793 120.553 186.628 120 188.5C119.523 190.336 119.303 191.205 119 192.5L117.5 196.5L115.5 201.5C115 202.667 113.6 205.7 112 208.5C110.4 211.3 109.667 212.667 109.5 213L107 217L104.5 221L101.5 224.5L98.5 228L95 232L91 237.5L89 241.5V245L91 249.5L95 253L100 256L104.5 257H108.5H112C113.167 256.833 115.8 256.4 117 256C118.2 255.6 119.5 253.833 120 253L124 249.5L129.5 246L134.5 243.5L138.5 241.5L143.5 239.5L149 237.5C150.888 236.631 151.976 236.183 154 235.5C155.956 235.111 157.444 234.893 160.5 234.5H166.5H173Z" fill="#C64525" stroke="#3B221B"/>
<path d="M211 364L200.5 371L194 373.5L195 375L231 377.5L235 374L245.5 365.5L250.5 361.5L255 358L262 353.5L268 349L275.5 344.5L282.5 340.5L292.5 336.5L300 335H305H325.5H335.5L345 336.5L354 338.5L363.5 341.5L371.5 344.5L379.5 348.5L389 354L402 363V41.5L392 50L384.5 56.5L374.5 65.5L365 74.5L356.5 83.5L348.5 91.5L343.5 96.5L335 105.5L328 114L321.5 121.5L314.5 131.5L308 142L302.5 151L297.5 162L293 170.5L295.5 173.5L302.5 182L308 193.5L311.5 201.5L314 213V222L313.5 231.5L311 240L306.5 251.5L297 271L287 286L271 307L255.5 324.5L240.5 340.5L225 354L211 364Z" fill="#C64525" stroke="#3B221B"/>
<path d="M208.5 363L191.5 369L188.5 372C188.667 373 189.2 375.3 190 376.5C190.8 377.7 198 379 201.5 379.5L218 381.5L233.5 379L231 377.5L225 374L217.5 369L208.5 363Z" fill="#C64525" stroke="#C64525"/>
<path d="M293.5 170.5L301 164L310 157L317.5 151.5L326 145.5L333 141L341 136L347 132.5L355.5 128L365 123.5L372 120L382.5 116L392 113L401 111M293.5 170.5H308H315H322.5L331.5 171L340.5 172L348.5 172.5L356 173L364.5 174L372.5 175L380.5 176.5L388.5 178.5L395.5 180.5L403 183M293.5 170.5L303 174.5L310 177.5L316.5 180L327.5 186L337.5 192L345 197L353 203.5L358.5 210.5L362.5 216.5L367 225.5L372 234.5L376 242L379 248.5L381.5 256L383.5 263L386 270.5L390 281.5L392.5 291L395 300.5L398 312L399.5 319L401 324.5" stroke="#3B221B"/>
<path d="M130.5 209.5V199C130.586 198.204 130.702 197.889 131 197.5L133.5 196L138 193.5L142.5 191C144.02 190.228 144.948 189.854 147 189.5H151V192.5V196.5C150.182 198.591 149.52 199.686 148 201.5L144 205.5L140 209C138.446 209.975 137.569 210.284 136 210.5H133C131.527 210.531 131.081 210.225 130.5 209.5Z" fill="#F9D0A2" stroke="#3B221B"/>
</g>
<defs>
<clipPath id="clip0_177_4">
<rect width="400" height="400" fill="white"/>
</clipPath>
</defs>
</svg>
