<svg width="480" height="480" viewBox="0 0 480 480" fill="none" xmlns="http://www.w3.org/2000/svg">
<g clip-path="url(#clip0_162_39)">
<path d="M140.5 267.5L143.5 264.5L145 211L178.5 176.5L255 148C264.333 144 287.9 135.1 307.5 131.5C327.1 127.9 356.333 153.667 368.5 167L388 181L449.5 224L480 289.5V376V481H171.5L165 474.5L155 457L145 437L137.5 419L135 403.5C134.667 399.333 134 388.7 134 379.5V358L135 342.5L137.5 327.5L141 313L143.5 301L146.5 291.5C147 289.167 149 281.5 146.5 277L140.5 267.5Z" fill="#C8BDB0" stroke="#0D0C08"/>
<path d="M129 206L114.5 188L119 136.5L126.5 128.5L196 108.5L229.5 104L244 172L240.5 174L225 178.5L212 182.5L196 186.5L186 188L174.5 195L169 201L168 208.5V222.5V230.5L165 244.5L161 252.5L153 267.5L146.5 276.5L144 274.5L140 267.5L137.5 256L136.5 244.5V234L134.5 217L129 206Z" fill="#0D0C08" stroke="#0D0C08"/>
<path d="M202 123.5L187 116L178 104L188.5 83.5L221.5 64L324.5 65.5L339 66.5C341.094 67.0672 343.393 68.2388 351 73C355.111 75.8017 357.521 77.6753 362 81.5C366.348 85.1504 368.751 87.2355 373 91C377.739 95.4385 380.197 98.1259 384.5 103L394 114C393.794 113.6 397.751 118.4 409.5 132.5C410.667 134.333 414.4 140.3 420 149.5C425.6 158.7 427.333 161.667 427.5 162C431.221 167.909 433.582 170.902 438 176L448 187.5C452.089 191.88 454.389 194.273 458.5 198.5C461.964 201.913 464.017 204.391 468 210.5C469.652 213.141 473.274 215.156 481 219V292.5L470.5 271.5L459.5 256L446 239L433 226.5L413 213L405 208.5H395L386 207.5L376.5 203L367.5 204C365.333 206.667 358.5 211.1 348.5 207.5L345 196.5C343.5 192 339.6 180.1 336 168.5C332.4 156.9 330.167 155.667 329.5 156.5L315.5 149.5H293.5C287.833 151.833 273.3 157.9 260.5 163.5C247.7 169.1 247.5 170.5 249 170.5L243.5 172.5L231.5 156.5L218 139.5L202 123.5Z" fill="#86552D" stroke="#0D0C08"/>
<path d="M239.5 115.5C233.1 117.9 232.833 118.833 233.5 119L232.5 125L235.5 130L239.5 132.5L242.5 135.5H247L251 133.5L254.5 132.5H259L264 131.5L270 130L275 128L279.5 125V121.5C278.833 119.833 277 115.9 275 113.5C273 111.1 268.833 110.5 267 110.5H259C255.167 111.167 245.9 113.1 239.5 115.5Z" fill="#C8BDB0" stroke="#0D0C08"/>
<ellipse cx="220.164" cy="135.657" rx="23" ry="19.5" transform="rotate(-14.5628 220.164 135.657)" fill="#3E2318"/>
<circle cx="220" cy="136" r="10" fill="#0D0C08"/>
<path d="M126.5 115L120.5 124L125 134.5L129 134H137L143.5 134.5C144.667 134.667 148.2 134.6 153 133L158.5 130.5L163.5 126.5L167 124L171 122.5L179 122L187 120L190 119L192 117.5C192.333 115.833 192.3 111.9 189.5 109.5L185.5 107C185 106.5 184 104.7 184 101.5L191.5 96L202 91L213.5 85L225.5 79L238.5 76L248.5 71.5L263.5 68.5H274.5H282L290 70.5L300 73.5H315.5L328 76L336.5 78.5L341.5 76L344 70.5L341.5 67.5L336.5 64.5L330.5 61.5L322.5 58L316.5 55.5L309 52.5L302.5 50C298.579 48.5567 296.385 47.777 292.5 46.5C292.161 46.3372 287.628 45.4315 285 45C279.085 44.4552 275.783 44.1911 270 44H251.5H244H237C233.343 44.1474 231.296 44.2345 228 45L218 47.5L210 50L201.5 53L196.5 55L191 57.5L186 60L181 62L176 64.5L171 67.5L166 70.5C162.981 72.4058 161.284 73.487 158 76L152.5 81L148 85.5L144 89.5L140.5 93.5C138.616 95.9777 137.034 98.1091 135 101.5L130 109.5L126.5 115Z" fill="#A09289" stroke="#0D0C08"/>
<path d="M111.5 124.5H121L127.5 140L138.5 147.5L150 156L159.5 160.5L169.5 167.5C170.833 170.333 172.7 176.9 169.5 180.5L166.5 186.5L159.5 189.5L150 193.5L139.5 195L129.5 196.5L124.5 202H117.5H108.5L101 201L94 199L87 196.5L79.5 193.5L73 189.5L68 186.5L60 184.5L52.5 180.5L38 176C36.5 173 36.5 173 38 170C39.2 167.6 40.8333 166 41.5 165.5L46 160.5L51 156L57.5 151L63 147.5L69 143.5L74.5 140L80 137L85.5 134.5L91.5 131.5L97 129L104 126L111.5 124.5Z" fill="#0D0C08"/>
<path d="M38 176C36.5 173 36.5 173 38 170C39.2 167.6 40.8333 166 41.5 165.5L46 160.5L51 156L57.5 151L63 147.5L69 143.5L74.5 140L80 137L85.5 134.5L91.5 131.5L97 129L104 126L111.5 124.5H121L127.5 140L138.5 147.5L150 156L159.5 160.5L169.5 167.5C170.833 170.333 172.7 176.9 169.5 180.5M38 176C39.2 178.4 37.3333 176 38 176ZM38 176L45 174C45.5 173.667 48.9961 172.858 52 172C55.5 171 60.5 170 63 170H73H80C81.5 170 85.5 170 89.5 170C93.5 170 94.5 170.5 99.5 171.5L105.5 172.5L111.5 174.5L121 176L129.5 177.5L137 179L145 180.5H155H164H169.5M38 176L52.5 180.5L60 184.5L68 186.5L73 189.5L79.5 193.5L87 196.5L94 199L101 201L108.5 202H117.5H124.5L129.5 196.5L139.5 195L150 193.5L159.5 189.5L166.5 186.5L169.5 180.5" stroke="#C8BDB0" stroke-width="3"/>
<path d="M111.5 123.5H120.084C118.615 133.299 105.925 136.755 89.5842 144L71.5 156.5L51 169L38.5 175L36.5 175.5L36 173.5C35.8833 172.971 35.8965 172.638 36 172L37 169.5L38 168L41.5 164L47 158L52 154L57 150L65 145L74 139L78 137L84 134L93.5 129.5L104 125L111.5 123.5Z" fill="#0D0C08"/>
<path d="M108 203H125L122.5 198.5L94 193L59.5 180.5L50.5 178C48.6667 177.667 46.7 177.7 43.5 176.5L39 177.5L40 178L52 181.5L60 185.5L67.5 187.5L79 194.5L93.5 200L100.5 202L108 203Z" fill="#0D0C08"/>
<path d="M111.5 123.5H120.084C118.615 133.299 105.925 136.755 89.5842 144L71.5 156.5L51 169L38.5 175L36.5 175.5L36 173.5C35.8833 172.971 35.8965 172.638 36 172L37 169.5L38 168L41.5 164L47 158L52 154L57 150L65 145L74 139L78 137L84 134L93.5 129.5L104 125L111.5 123.5Z" stroke="#0D0C08"/>
<path d="M108 203H125L122.5 198.5L94 193L59.5 180.5L50.5 178C48.6667 177.667 46.7 177.7 43.5 176.5L39 177.5L40 178L52 181.5L60 185.5L67.5 187.5L79 194.5L93.5 200L100.5 202L108 203Z" stroke="#0D0C08"/>
<path d="M252.5 361C251.995 374.935 252.81 384.024 257.5 404C259.707 409.949 261.699 413.536 267 420.5C272.721 428.436 276.46 432.795 284 440.5L304.5 461.5L325 481H481V388.5L474.5 385.5L456 376L442 365.5L436 360.5L432.5 353L420.5 332.5C414.569 321.888 410.897 317.114 403.5 311.5C391.823 304.42 385.092 300.89 372.5 296C359.326 291.59 351.981 289.62 339 287.5C332.307 286.456 328.58 286.092 322 286C315.931 286.39 312.745 287.019 307.5 289C301.157 291.652 297.743 293.177 292 296C285.258 299.331 281.577 301.325 275.5 305.5C273.3 307.277 271.854 307.929 263.5 316C259.38 320.204 259.713 319.964 256.5 326C252.712 335.229 252.957 348.32 252.5 361Z" fill="#86552D" stroke="#0D0C08"/>
<path d="M295.545 348.293C296.436 349.005 297.988 348.443 299.055 348.767C300.334 349.157 301.574 349.166 302.869 349.446C305.043 349.916 308.111 349.691 310.345 349.496C312.576 349.302 314.637 347.803 316.618 346.937C317.486 346.557 318.236 345.97 319.11 345.614C320.01 345.247 320.35 344.27 321.178 343.783C321.731 343.458 321.484 343.914 321.484 344.478C321.484 345.306 321.962 346.324 322.399 347.004C322.999 347.937 323.474 348.88 324.077 349.819C324.73 350.834 325.873 351.312 326.536 352.277C327.828 354.157 330.473 355.709 332.622 356.362C335.065 357.106 336.91 358.058 339.556 358.058C342.282 358.058 344.226 357.623 346.812 356.905C349.036 356.287 351.039 355.019 353.22 354.396C354.541 354.018 355.572 352.229 356.729 351.972C357.125 351.884 357.69 356.511 357.865 357.142C359.414 362.721 367.143 364.785 371.851 366.433C373.851 367.133 377.389 366.794 379.48 366.585C382.507 366.283 385.793 365.128 388.381 363.618C391.165 361.994 394.374 360.756 396.484 358.193C397.38 357.106 399.909 356.194 399.909 354.582C399.909 354.091 400.088 355.574 400.349 355.989C400.994 357.012 401.051 358.207 401.587 359.278C402.808 361.72 404.914 363.372 407.097 365.009C410.848 367.822 416.638 368.121 420.49 365.348C422.712 363.747 424.809 361.183 426.169 358.804C426.964 357.413 427.967 356.601 429.136 355.549C429.908 354.854 431.164 358.428 431.272 358.905C431.885 361.604 433.989 364.061 436.07 365.822C438.322 367.728 441.027 368.623 443.546 370.111C446.545 371.884 449.27 373.889 452.396 375.452C461.612 380.06 472.523 383.081 482.911 383.081" stroke="#0D0C08" stroke-width="8" stroke-linecap="round"/>
<path d="M296.685 385.113C297.737 386.271 298.556 387.614 299.662 388.752C300.828 389.952 302.192 390.951 303.374 392.133C304.647 393.406 306.048 394.78 307.491 395.827C309.83 397.525 312.464 398.865 315.044 400.155C317.346 401.306 319.649 402.59 322.064 403.509C323.317 403.985 324.503 404.555 325.795 404.869C327.15 405.198 328.483 405.468 329.856 405.714C332.288 406.151 334.593 406.522 337.078 406.155C338.098 406.005 339.251 405.808 340.221 405.457C341.299 405.067 342.406 405.075 343.409 404.465C345.055 403.463 346.679 402.517 348.206 401.322C349.715 400.141 351.609 399.203 352.791 397.683C353.805 396.379 354.912 394.81 356.145 393.714C356.567 393.338 357.518 390.246 358.212 390.902C359.34 391.967 359.881 393.813 360.868 395.046C362.036 396.506 363.077 398.023 364.258 399.466C366.918 402.717 370.82 405.304 374.752 406.743C379.098 408.335 384.21 407.683 388.636 406.945C390.919 406.565 392.462 405.403 394.5 404.465C396.618 403.489 396.5 401.322 398 399.466C398 398.504 398.999 396.116 399.322 395.193C399.599 394.402 399.985 393.526 400.186 392.721C400.421 391.78 400.498 391 401.463 390.571C402.491 390.114 403.572 391.284 404.064 392.097C404.508 392.832 404.893 393.489 405.185 394.302C405.423 394.968 405.954 395.919 406.664 396.186C407.46 396.484 408.199 397.007 408.989 397.352C409.715 397.67 410.57 398.324 411.314 398.51C413.147 398.969 414.812 399.97 416.634 400.495C421.225 401.818 425.931 402.007 430.49 400.624C432.474 400.022 434.308 399.273 436.105 398.262C436.812 397.864 437.419 397.221 438.108 396.774C438.876 396.274 439.594 395.857 440.249 395.202C440.661 394.79 441.121 394.225 441.406 393.714C441.655 393.27 442.399 393.033 442.399 392.473C442.399 391.871 442.895 391.339 442.895 390.737" stroke="#0D0C08" stroke-width="8" stroke-linecap="round"/>
</g>
<defs>
<clipPath id="clip0_162_39">
<rect width="480" height="480" fill="white"/>
</clipPath>
</defs>
</svg>
